<svg width="57" height="56" viewBox="0 0 57 56" fill="none" xmlns="http://www.w3.org/2000/svg">
<g filter="url(#filter0_d_1_286)">
<rect x="4.5" width="48" height="48" rx="24" fill="#ECF1F6"/>
<g clip-path="url(#clip0_1_286)">
<path d="M35.0764 25.453C34.4162 22.1305 37.5698 20.1819 37.5698 20.1819C37.5698 20.1819 36.3411 18.4042 34.2761 17.9469C32.2121 17.4886 31.1792 18.0612 30.1482 18.4907C29.1162 18.9212 28.6012 18.9212 28.6012 18.9212C27.112 18.9212 26.0233 17.3444 23.1859 18.0623C21.2311 18.5556 19.1733 20.8122 18.8015 23.5054C18.4297 26.1997 19.232 29.6376 20.779 32.302C22.3259 34.9685 23.9017 35.9706 25.0202 35.9994C26.1387 36.0272 27.2551 35.1982 28.6012 34.9963C29.9484 34.7965 30.7775 35.4845 32.0988 35.8563C33.4151 36.2271 33.8765 35.8831 35.3925 34.5936C36.9127 33.3041 38.2887 29.6057 38.2887 29.6057C38.2887 29.6057 35.7365 28.7776 35.0764 25.453Z" fill="#1F2C37"/>
<path d="M32.1534 15.7973C33.6159 14.3071 33.1205 12 33.1205 12C33.1205 12 31.0668 12.3605 29.6908 13.7921C28.3159 15.2247 28.5435 17.4874 28.5435 17.4874C28.5435 17.4874 30.6909 17.2866 32.1534 15.7973Z" fill="#1F2C37"/>
</g>
</g>
<defs>
<filter id="filter0_d_1_286" x="0.5" y="0" width="56" height="56" filterUnits="userSpaceOnUse" color-interpolation-filters="sRGB">
<feFlood flood-opacity="0" result="BackgroundImageFix"/>
<feColorMatrix in="SourceAlpha" type="matrix" values="0 0 0 0 0 0 0 0 0 0 0 0 0 0 0 0 0 0 127 0" result="hardAlpha"/>
<feOffset dy="4"/>
<feGaussianBlur stdDeviation="2"/>
<feComposite in2="hardAlpha" operator="out"/>
<feColorMatrix type="matrix" values="0 0 0 0 0 0 0 0 0 0 0 0 0 0 0 0 0 0 0.25 0"/>
<feBlend mode="normal" in2="BackgroundImageFix" result="effect1_dropShadow_1_286"/>
<feBlend mode="normal" in="SourceGraphic" in2="effect1_dropShadow_1_286" result="shape"/>
</filter>
<clipPath id="clip0_1_286">
<rect width="24" height="24" fill="white" transform="translate(16.5 12)"/>
</clipPath>
</defs>
</svg>
