<svg width="48" height="48" viewBox="0 0 48 48" fill="none" xmlns="http://www.w3.org/2000/svg">
<circle cx="24" cy="24" r="23.5" fill="#FDFDFD" stroke="#E3E9ED"/>
<g clip-path="url(#clip0_1_252)">
<path d="M25.8302 31C25.6808 31.0005 25.5332 30.9676 25.3982 30.9035C25.2632 30.8395 25.1443 30.7461 25.0502 30.63L20.2202 24.63C20.0731 24.4511 19.9927 24.2267 19.9927 23.995C19.9927 23.7634 20.0731 23.539 20.2202 23.36L25.2202 17.36C25.3899 17.1558 25.6338 17.0274 25.8982 17.003C26.1627 16.9786 26.4259 17.0603 26.6302 17.23C26.8344 17.3998 26.9628 17.6437 26.9872 17.9081C27.0116 18.1725 26.9299 18.4358 26.7602 18.64L22.2902 24L26.6102 29.36C26.7324 29.5068 26.8101 29.6856 26.834 29.8751C26.8579 30.0647 26.827 30.2571 26.7449 30.4296C26.6629 30.6021 26.5331 30.7475 26.371 30.8486C26.2089 30.9497 26.0212 31.0023 25.8302 31Z" fill="#1F2C37"/>
</g>
<defs>
<clipPath id="clip0_1_252">
<rect width="24" height="24" fill="white" transform="translate(12 12)"/>
</clipPath>
</defs>
</svg>
