<svg width="49" height="48" viewBox="0 0 49 48" fill="none" xmlns="http://www.w3.org/2000/svg">
<rect x="0.5" width="48" height="48" rx="24" fill="#ECF1F6"/>
<g clip-path="url(#clip0_1_270)">
<g clip-path="url(#clip1_1_270)">
<path d="M36.3072 22.141C36.4139 22.141 36.5003 22.2275 36.5003 22.3342V24.3623C36.5003 25.1214 36.4298 25.8636 36.2946 26.5836C35.2485 32.1762 30.3215 36.4027 24.4157 36.362C17.7891 36.3163 12.4857 30.962 12.5004 24.3353C12.515 17.7204 17.8821 12.3623 24.5003 12.3623C27.7428 12.3623 30.6848 13.6486 32.8448 15.7381C32.9228 15.8136 32.9248 15.9379 32.848 16.0146L29.9788 18.8838C29.9049 18.9577 29.7856 18.9596 29.7098 18.8876C28.3542 17.5972 26.52 16.8049 24.5003 16.8049C20.3298 16.8049 16.9715 20.1394 16.9432 24.3099C16.9147 28.5076 20.3092 31.9196 24.5003 31.9196C27.9009 31.9196 30.7771 29.6732 31.7255 26.5836H24.6935C24.5868 26.5836 24.5003 26.4971 24.5003 26.3904V22.3341C24.5003 22.2274 24.5868 22.1409 24.6935 22.1409H36.3072V22.141Z" fill="#2196F3"/>
<path d="M36.3066 22.141H34.8579C34.9646 22.141 35.0511 22.2275 35.0511 22.3342V24.3623C35.0511 25.1214 34.9806 25.8636 34.8454 26.5836C33.8473 31.919 29.3171 36.011 23.7747 36.3406C23.9867 36.3532 24.2002 36.3605 24.4152 36.362C30.3209 36.4027 35.2479 32.1762 36.294 26.5836C36.4293 25.8636 36.4998 25.1214 36.4998 24.3623V22.3341C36.4998 22.2275 36.4133 22.141 36.3066 22.141Z" fill="#1E88E5"/>
<path d="M17.6361 21.1974L13.9917 18.5641C16.0363 14.8661 19.9762 12.3623 24.5005 12.3623C27.743 12.3623 30.685 13.6486 32.8449 15.7381C32.9229 15.8136 32.9249 15.9379 32.8482 16.0146L29.9789 18.8838C29.9052 18.9576 29.7859 18.9599 29.7103 18.888C28.3547 17.5973 26.5203 16.805 24.5005 16.805C21.4568 16.805 18.8332 18.6042 17.6361 21.1974Z" fill="#F44336"/>
<path d="M16.5833 20.4372L17.6354 21.1974C18.728 18.8305 21.0093 17.1258 23.7135 16.8462C23.7339 16.844 23.7534 16.8413 23.7742 16.8394C23.5362 16.8168 23.295 16.805 23.0511 16.805C20.3015 16.805 17.9053 18.2545 16.5833 20.4372Z" fill="#E53935"/>
<path d="M31.3958 15.7381C31.4738 15.8136 31.4758 15.9379 31.3991 16.0146L29.0702 18.3435C29.2933 18.5132 29.5069 18.6947 29.7096 18.8876C29.7852 18.9597 29.9046 18.9578 29.9785 18.8839L32.8478 16.0146C32.9245 15.9379 32.9224 15.8136 32.8445 15.7381C30.6845 13.6486 27.7426 12.3623 24.5001 12.3623C24.2568 12.3623 24.0154 12.3704 23.7756 12.3847C26.7306 12.5607 29.3979 13.8054 31.3958 15.7381Z" fill="#E53935"/>
<path d="M33.3023 32.5175C31.1109 34.8822 27.9779 36.3623 24.4996 36.3623C19.8015 36.3623 15.7341 33.6625 13.7643 29.7292L17.485 27.1795C18.6015 29.9576 21.3217 31.9196 24.4996 31.9196C26.4939 31.9196 28.3077 31.147 29.6579 29.8847L33.3023 32.5175Z" fill="#4CAF50"/>
<path d="M17.4852 27.1795L16.3881 27.9314C17.6624 30.3053 20.1682 31.9196 23.0511 31.9196C23.2949 31.9196 23.5359 31.9077 23.7738 31.8851C20.9121 31.6123 18.5156 29.7436 17.4852 27.1795Z" fill="#43A047"/>
<path d="M24.5001 36.3623C27.9784 36.3623 31.1115 34.8823 33.3029 32.5175L32.4102 31.8727C30.3526 34.4334 27.2659 36.1322 23.7776 36.3405C24.0167 36.3547 24.2575 36.3623 24.5001 36.3623Z" fill="#43A047"/>
<path d="M16.9427 24.3623C16.9427 25.358 17.1353 26.3089 17.4854 27.1795L13.7647 29.7292C12.9554 28.1144 12.5 26.2915 12.5 24.3623C12.5 22.2593 13.0408 20.2828 13.9912 18.5641L17.6356 21.1974C17.1909 22.1598 16.9427 23.2323 16.9427 24.3623Z" fill="#FFC107"/>
<path d="M16.3883 27.9314L17.4855 27.1796C17.1354 26.3089 16.9427 25.358 16.9427 24.3623C16.9427 23.2323 17.1909 22.1598 17.6357 21.1974L16.5836 20.4372C15.9004 21.5653 15.5039 22.889 15.4942 24.3099C15.4853 25.6203 15.81 26.8541 16.3883 27.9314Z" fill="#FFB300"/>
</g>
</g>
<defs>
<clipPath id="clip0_1_270">
<rect width="24" height="24" fill="white" transform="translate(12.5 12)"/>
</clipPath>
<clipPath id="clip1_1_270">
<rect width="24" height="24" fill="white" transform="translate(12.5 12.3623)"/>
</clipPath>
</defs>
</svg>
